<svg width="18" height="18" viewBox="0 0 18 18" fill="none" xmlns="http://www.w3.org/2000/svg">
<g id="icon-&#229;&#156;&#176;&#229;&#157;&#128;">
<path id="Vector" d="M3.6967 12.2842C2.33947 12.6914 1.5 13.2539 1.5 13.8752C1.5 15.1178 4.85786 16.1252 9 16.1252C13.1421 16.1252 16.5 15.1178 16.5 13.8752C16.5 13.2539 15.6605 12.6914 14.3033 12.2842" stroke="white" stroke-linecap="round" stroke-linejoin="round"/>
<path id="Vector_2" d="M9 13.125C9 13.125 13.875 9.939 13.875 6.25568C13.875 3.62919 11.6924 1.5 9 1.5C6.30761 1.5 4.125 3.62919 4.125 6.25568C4.125 9.939 9 13.125 9 13.125Z" stroke="white" stroke-linejoin="round"/>
<path id="Vector_3" d="M9 8.25C10.0355 8.25 10.875 7.41053 10.875 6.375C10.875 5.33948 10.0355 4.5 9 4.5C7.96448 4.5 7.125 5.33948 7.125 6.375C7.125 7.41053 7.96448 8.25 9 8.25Z" stroke="white" stroke-linejoin="round"/>
</g>
</svg>
