<svg width="24" height="24" viewBox="0 0 24 24" fill="none" xmlns="http://www.w3.org/2000/svg">
<g id="ic_ins">
<path id="Subtract" fill-rule="evenodd" clip-rule="evenodd" d="M20.9997 11.5454C20.9995 11.6968 20.9993 11.8483 20.9993 12C20.9993 12.1696 20.9996 12.339 20.9998 12.5083C21.0014 13.5792 21.003 14.6437 20.9408 15.715C20.871 17.156 20.5445 18.4326 19.4886 19.4886C18.4348 20.5423 17.156 20.871 15.715 20.9408C14.6258 21.0021 13.5436 21.0009 12.4546 20.9997C12.3032 20.9995 12.1517 20.9993 12 20.9993C11.8486 20.9993 11.6974 20.9995 11.5462 20.9997C10.4587 21.0009 9.37617 21.0021 8.28499 20.9408C6.84402 20.871 5.5674 20.5445 4.51144 19.4886C3.45773 18.4348 3.12901 17.156 3.05921 15.715C2.99793 14.6258 2.99913 13.5418 3.00033 12.4538C3.0005 12.3026 3.00067 12.1514 3.00067 12C3.00067 11.8486 3.0005 11.6974 3.00033 11.5462C2.99913 10.4587 2.99793 9.37617 3.05921 8.28499C3.12901 6.84402 3.45548 5.5674 4.51144 4.51144C5.56515 3.45773 6.84402 3.12901 8.28499 3.05921C9.37416 2.99793 10.4564 2.99913 11.5454 3.00033C11.6968 3.0005 11.8483 3.00067 12 3.00067C12.1514 3.00067 12.3026 3.0005 12.4538 3.00033C13.5413 2.99913 14.6238 2.99793 15.715 3.05921C17.156 3.12901 18.4326 3.45548 19.4886 4.51144C20.5423 5.56515 20.871 6.84402 20.9408 8.28499C21.0021 9.37416 21.0009 10.4564 20.9997 11.5454ZM7.37988 11.9999C7.37988 9.44445 9.44228 7.38205 11.9978 7.38205C14.5532 7.38205 16.6156 9.44445 16.6156 11.9999C16.6156 14.5554 14.5532 16.6178 11.9978 16.6178C9.44228 16.6178 7.37988 14.5554 7.37988 11.9999ZM8.99648 11.9999C8.99648 13.6525 10.3451 15.0012 11.9978 15.0012C13.6504 15.0012 14.999 13.6525 14.999 11.9999C14.999 10.3473 13.6504 8.99865 11.9978 8.99865C10.3451 8.99865 8.99648 10.3473 8.99648 11.9999ZM15.7263 7.19518C15.7263 6.59853 16.2081 6.1167 16.8048 6.1167C17.4014 6.1167 17.881 6.59627 17.8832 7.19518C17.8832 7.79408 17.4014 8.27366 16.8048 8.27366C16.2081 8.27366 15.7263 7.79183 15.7263 7.19518Z" fill="white"/>
</g>
</svg>
