<svg width="24" height="24" viewBox="0 0 24 24" fill="none" xmlns="http://www.w3.org/2000/svg">
<g id="ic_linkedin">
<path id="Vector" d="M20.0001 3H3.99994C3.73474 3 3.4804 3.10535 3.29287 3.29287C3.10535 3.4804 3 3.73474 3 3.99994V20.0001C3 20.2653 3.10535 20.5196 3.29287 20.7071C3.4804 20.8946 3.73474 21 3.99994 21H20.0001C20.2653 21 20.5196 20.8946 20.7071 20.7071C20.8946 20.5196 21 20.2653 21 20.0001V3.99994C21 3.73474 20.8946 3.4804 20.7071 3.29287C20.5196 3.10535 20.2653 3 20.0001 3ZM9.06514 16.9044H6.57767V9.84631H9.06514V16.9044ZM7.82619 8.79913C7.05993 8.79913 6.43904 8.24208 6.43904 7.55427C6.43904 6.86646 7.05993 6.30829 7.82619 6.30829C8.59245 6.30829 9.21249 6.8659 9.21249 7.55427C9.21249 8.24264 8.59189 8.79913 7.82619 8.79913ZM17.561 16.9044H15.0845V13.0491C15.0845 12.259 14.8558 11.4674 13.9248 11.4674C12.9938 11.4674 12.6049 12.259 12.6049 13.0686V16.9044H10.1213V9.84631H12.6049V10.7968C13.2584 9.96638 13.8261 9.62388 14.8544 9.62388C15.8828 9.62388 17.5596 10.1047 17.5596 12.8925L17.561 16.9044Z" fill="white"/>
</g>
</svg>
