<svg width="62" height="48" viewBox="0 0 62 48" fill="none" xmlns="http://www.w3.org/2000/svg">
<g id="logo">
<g id="Union">
<path d="M60.0879 18.4327C60.2729 18.166 60.4539 17.9051 60.6305 17.6475H60.6276C60.8887 17.2656 60.3797 16.8139 60.0026 17.0799C55.4317 20.2995 53.127 20.4634 49.9438 20.6899C48.7626 20.774 47.4605 20.8666 45.8767 21.1272C41.1685 21.9012 38.8767 26.756 37.3554 29.9788L37.3459 29.9988V30.0003L32.1292 42.1094C31.9517 42.5136 32.3962 42.9043 32.7673 42.6725C40.3256 37.9408 47.8353 39.5468 50.2705 40.0676C50.3022 40.0743 50.3329 40.0809 50.3628 40.0873C50.7105 40.1616 51.0567 39.9417 51.1389 39.5925C54.0776 27.0977 57.4756 22.1988 60.0879 18.4327Z" fill="#FF4E2A"/>
<path d="M55.0029 46.3618C54.8577 47.1566 54.0068 47.5905 53.2836 47.2473H53.2851C45.8942 43.7319 40.3488 43.7141 38.0368 43.9265C37.783 43.9503 37.7419 44.3084 37.9825 44.3946C38.3346 44.5194 38.7058 44.662 39.0036 44.8552C41.6912 46.592 40.6877 48.1997 39.7987 47.9798C36.8045 47.2398 34.3399 47.3617 32.3448 47.4791C31.7315 47.5162 31.1726 47.2369 31.0655 47.0333C30.8733 46.6693 31.0391 45.7704 32.4504 44.8507C32.5516 44.7848 32.6426 44.7251 32.7261 44.6703C33.2697 44.3137 33.4921 44.1678 34.0949 43.9102C34.1988 43.8657 34.31 43.817 34.4287 43.765C36.7204 42.7619 41.795 40.5406 50.9965 43.3278C51.8019 43.5729 52.6542 43.1079 52.889 42.2907C56.7824 28.7181 57.3062 27.5398 58.5341 25.1997C59.1693 23.9903 59.8823 23.0052 60.2417 22.555C60.2417 22.555 61.0427 21.5447 61.7909 21.1123C61.9508 21.0187 62.0447 21.2787 61.9786 21.3723C58.7198 25.9551 56.9638 35.5963 55.1537 45.5341C55.1035 45.8098 55.0533 46.0857 55.0029 46.3618Z" fill="#FF4E2A"/>
</g>
<path id="Vector" d="M30.1667 0.339079C29.3088 4.83299 26.7189 11.7892 18.9027 10.9077C18.4614 10.8574 18.1511 11.324 18.3769 11.7002C20.1729 14.6823 25.4575 24.3104 24.1203 26.243C22.1626 29.0714 15.369 20.9551 12.664 18.0118C12.3159 17.6327 11.6837 17.9113 11.7318 18.421C11.9954 21.2465 11.0341 26.0133 0.78968 21.6687C0.211403 21.4231 -0.279477 22.1539 0.183727 22.5746C3.87771 25.93 8.35535 31.1561 2.68182 33.8281C2.21862 34.0463 2.28271 34.7139 2.78379 34.8245C6.58265 35.663 15.0893 37.8611 15.1577 40.7254C15.216 43.1748 12.2751 43.8712 9.56143 47.2883C9.28613 47.6357 9.64737 48.1196 10.0683 47.9731C11.8862 47.3385 15.436 46.5546 20.8269 47.294C22.821 47.5682 24.617 46.8446 26.0081 45.8812C27.4589 44.8762 28.5659 43.4591 29.2942 41.8669L38.5161 21.7304L42.9544 11.6528C43.1204 11.2767 42.8102 10.8589 42.3965 10.9105C39.827 11.2336 32.8702 11.0699 30.9926 0.350565C30.9125 -0.108877 30.2512 -0.120363 30.1624 0.337643L30.1667 0.339079Z" fill="#FF970F"/>
</g>
</svg>
